<svg version="1.2" xmlns="http://www.w3.org/2000/svg" viewBox="0 0 457 527" width="32" height="37">
	<title>Emblem_of_the_First_Order-svg</title>
	<style>
		.s0 { fill: #ffffff;stroke: #000000;stroke-width: 14 } 
		.s1 { fill: #000000 } 
		.s2 { fill: #ffffff } 
	</style>
	<path id="Layer" class="s0" d="m228 8.5l222 126v258l-222 126-221-126v-258z"/>
	<path id="Layer" class="s1" d="m228.5 453.5c-105.1 0-190-84.9-190-190 0-105.1 84.9-190 190-190 105.1 0 190 84.9 190 190 0 105.1-84.9 190-190 190z"/>
	<g id="pt8">
		<g id="pt4">
			<g id="pt2">
				<path id="pt" class="s2" d="m207.5 264.4l4-176q4.4-0.4 8.9-0.7 4.4-0.2 8.8-0.2 4.5 0 8.9 0.2 4.5 0.3 8.9 0.7l4 176"/>
				<path id="pt" class="s2" d="m208.6 256.8l67.3-162.7q4.3 1.2 8.5 2.6 4.2 1.4 8.4 3 4.1 1.6 8.2 3.4 4 1.8 8 3.8l-59.8 165.6"/>
			</g>
			<g id="pt2">
				<path id="pt" class="s2" d="m212.4 250l121.5-127.4q3.6 2.7 7 5.5 3.4 2.8 6.7 5.8 3.3 3 6.4 6.2 3.2 3.2 6.1 6.5l-115.6 132.7"/>
				<path id="pt" class="s2" d="m218.3 245.1l159.4-74.9q2.3 3.8 4.5 7.7 2.2 3.8 4.2 7.8 2 4 3.7 8.1 1.8 4.1 3.4 8.2l-155.8 82"/>
			</g>
		</g>
		<g id="pt4">
			<g id="pt2">
				<path id="pt" class="s2" d="m225.7 242.7l175.6-12.3q0.8 4.4 1.5 8.8 0.6 4.4 1 8.8 0.4 4.4 0.6 8.9 0.2 4.4 0.2 8.9l-174.9 20.2"/>
				<path id="pt" class="s2" d="m233.4 243.1l168.2 52q-0.8 4.3-1.8 8.7-1 4.3-2.2 8.6-1.2 4.3-2.7 8.5-1.4 4.2-3 8.3l-170.4-44.3"/>
			</g>
			<g id="pt2">
				<path id="pt" class="s2" d="m240.4 246.2l138.1 109.3q-2.3 3.8-4.8 7.4-2.5 3.7-5.2 7.3-2.7 3.5-5.5 6.9-2.9 3.4-5.9 6.7l-142.9-102.9"/>
				<path id="pt" class="s2" d="m245.9 251.7l89.2 151.7q-3.5 2.7-7.2 5.3-3.6 2.5-7.4 4.8-3.8 2.4-7.7 4.5-3.9 2.2-7.9 4.1l-96-147.5"/>
			</g>
		</g>
	</g>
	<g id="pt8">
		<g id="pt4">
			<g id="pt2">
				<path id="pt" class="s2" d="m249 258.8l28.4 173.7q-4.3 1.2-8.6 2.3-4.3 1-8.7 1.8-4.4 0.9-8.8 1.5-4.4 0.5-8.8 0.9l-36.3-172.3"/>
				<path id="pt" class="s2" d="m249.3 266.5l-36.3 172.2q-4.4-0.3-8.8-0.9-4.4-0.6-8.8-1.4-4.3-0.9-8.7-1.9-4.3-1-8.6-2.3l28.4-173.7"/>
			</g>
			<g id="pt2">
				<path id="pt" class="s2" d="m246.8 273.8l-96 147.5q-4-1.9-7.9-4.1-3.9-2.1-7.7-4.5-3.8-2.3-7.4-4.8-3.7-2.6-7.2-5.3l89.2-151.7"/>
				<path id="pt" class="s2" d="m241.9 279.7l-142.9 102.9q-3-3.3-5.9-6.7-2.8-3.4-5.5-6.9-2.7-3.6-5.2-7.3-2.5-3.6-4.8-7.4l138.1-109.3"/>
			</g>
		</g>
		<g id="pt4">
			<g id="pt2">
				<path id="pt" class="s2" d="m235.1 283.5l-170.4 44.3q-1.6-4.2-3-8.4-1.5-4.2-2.7-8.5-1.2-4.2-2.2-8.6-1-4.3-1.8-8.7l168.2-52"/>
				<path id="pt" class="s2" d="m227.5 284.5l-174.9-20.2q-0.1-4.5 0.1-8.9 0.2-4.5 0.6-8.9 0.4-4.4 1.1-8.8 0.6-4.4 1.5-8.8l175.6 12.3"/>
			</g>
			<g id="pt2">
				<path id="pt" class="s2" d="m219.9 282.7l-155.7-82q1.6-4.2 3.3-8.3 1.8-4 3.8-8 2-4 4.2-7.9 2.1-3.9 4.5-7.6l159.3 74.9"/>
				<path id="pt" class="s2" d="m213.6 278.3l-115.6-132.7q2.9-3.4 6.1-6.5 3.1-3.2 6.4-6.2 3.3-3 6.7-5.8 3.4-2.8 7-5.5l121.5 127.4"/>
			</g>
		</g>
	</g>
	<g id="pt8">
		<g id="pt4">
			<g id="pt2">
				<path id="pt" class="s2" d="m209.2 271.9l-59.8-165.5q4-2.1 8-3.9 4.1-1.8 8.2-3.4 4.2-1.6 8.4-3 4.2-1.4 8.5-2.6l67.3 162.7"/>
				<path id="pt" class="s2" d="m207.5 264.4l4-176q4.4-0.4 8.9-0.7 4.4-0.2 8.8-0.2 4.5 0 8.9 0.2 4.5 0.3 8.9 0.7l4 176"/>
			</g>
			<g id="pt2">
				<path id="pt" class="s2" d="m208.6 256.8l67.3-162.7q4.3 1.2 8.5 2.6 4.2 1.4 8.4 3 4.1 1.6 8.2 3.4 4 1.8 8 3.8l-59.8 165.6"/>
				<path id="pt" class="s2" d="m212.4 250l121.5-127.4q3.6 2.7 7 5.5 3.4 2.8 6.7 5.8 3.3 3 6.4 6.2 3.2 3.2 6.1 6.5l-115.6 132.7"/>
			</g>
		</g>
		<g id="pt4">
			<g id="pt2">
				<path id="pt" class="s2" d="m218.3 245.1l159.4-74.9q2.3 3.8 4.5 7.7 2.2 3.8 4.2 7.8 2 4 3.7 8.1 1.8 4.1 3.4 8.2l-155.8 82"/>
				<path id="pt" class="s2" d="m225.7 242.7l175.6-12.3q0.8 4.4 1.5 8.8 0.6 4.4 1 8.8 0.4 4.4 0.6 8.9 0.2 4.4 0.2 8.9l-174.9 20.2"/>
			</g>
			<g id="pt2">
				<path id="pt" class="s2" d="m233.4 243.1l168.2 52q-0.8 4.3-1.8 8.7-1 4.3-2.2 8.6-1.2 4.3-2.7 8.5-1.4 4.2-3 8.3l-170.4-44.3"/>
				<path id="pt" class="s2" d="m240.4 246.2l138.1 109.3q-2.3 3.8-4.8 7.4-2.5 3.7-5.2 7.3-2.7 3.5-5.5 6.9-2.9 3.4-5.9 6.7l-142.9-102.9"/>
			</g>
		</g>
	</g>
</svg>